<svg width="128" height="128" viewBox="0 0 128 128" fill="none" xmlns="http://www.w3.org/2000/svg">
<rect width="128" height="128" rx="64" fill="#FC5D5A"/>
<g clip-path="url(#clip0_104_7125)">
<path d="M110.975 35.9996L88.2975 58.9636L113 92.9996H99.2314L84.6529 72.0859C84.6529 72.0859 81.8182 67.9852 78.5785 67.9852C75.3388 67.9852 73.314 73.3162 73.314 73.3162C73.314 73.3162 66.8347 92.9996 42.1322 92.9996H15V40.5104C15 40.5104 15 35.9996 20.6694 35.9996H43.3471C43.3471 35.9996 59.5455 35.5895 59.5455 49.9421C59.5455 49.9421 59.9504 58.9636 52.6612 61.8341C52.6612 61.8341 60.7603 65.5248 60.7603 70.8557C60.7603 70.8557 55.9008 76.5967 48.6116 79.0572C48.6116 79.0572 49.8264 77.0068 49.8264 74.9564C49.8264 72.9061 48.6116 67.5752 42.9421 67.5752H29.1736V57.7334H41.3223C41.3223 57.7334 47.8017 58.1435 47.8017 51.1723C47.8017 44.2011 40.9174 45.4313 40.9174 45.4313H26.3388V82.7478H44.9669C44.9669 82.7478 56.3058 82.3377 62.7851 72.496V40.9205C62.7851 40.9205 63.1901 35.9996 68.0496 35.9996H74.124V58.9636L96.3967 35.9996H110.975Z" fill="white"/>
</g>
<defs>
<clipPath id="clip0_104_7125">
<rect width="98" height="57" fill="white" transform="translate(15 36)"/>
</clipPath>
</defs>
</svg>
